<?xml version="1.0" encoding="iso-8859-1"?>
<!-- Generator: Adobe Illustrator 18.0.0, SVG Export Plug-In . SVG Version: 6.00 Build 0)  -->
<!DOCTYPE svg PUBLIC "-//W3C//DTD SVG 1.1//EN" "http://www.w3.org/Graphics/SVG/1.1/DTD/svg11.dtd">
<svg version="1.1" id="Capa_1" xmlns="http://www.w3.org/2000/svg" xmlns:xlink="http://www.w3.org/1999/xlink" x="0px" y="0px"
	 viewBox="0 0 297 297" style="enable-background:new 0 0 297 297;" xml:space="preserve">
<path d="M24.171,287.094c0,5.471,4.436,9.906,9.906,9.906h32.689c5.471,0,9.905-4.435,9.905-9.906V175.615
	c1.902,0.07,3.818,0.114,5.761,0.114c0.003,0,0.003,0,0.006,0c23.071,0,45.984-4.937,68.141-9.71
	c22.116-4.765,43.006-9.266,63.968-9.266c16.348,0,30.884,2.839,44.438,8.679c1.323,0.571,2.724,0.839,4.101,0.808
	c5.396-0.086,9.744-4.487,9.744-9.904c0-1.942-0.559-3.755-1.524-5.284c-13.95-25.444-28.795-49.277-45.251-72.634
	c15.974-21.928,30.315-38.945,43.731-51.897c2.384-2.302,3.459-5.645,2.864-8.904c-0.595-3.262-2.781-6.008-5.826-7.319
	C250.745,3.368,233.645,0,214.547,0c-23.074,0-45.988,4.937-68.148,9.711c-22.115,4.764-43.004,9.264-63.967,9.266
	c-0.003,0-0.004,0-0.008,0c-16.342,0-30.874-2.84-44.428-8.68c-3.062-1.319-6.58-1.011-9.365,0.822
	c-2.784,1.832-4.461,4.941-4.461,8.275V287.094z M56.86,277.188H43.982V170.426c4.205,1.242,8.493,2.263,12.878,3.065V277.188z
	 M214.547,136.941c-23.072,0-45.983,4.936-68.141,9.711c-22.116,4.764-43.005,9.266-63.968,9.266c-0.002,0-0.004,0-0.004,0
	c-13.969-0.001-26.613-2.073-38.452-6.319V33.495c12.025,3.553,24.718,5.293,38.442,5.293c0.002,0,0.007,0,0.009,0
	c23.072-0.002,45.982-4.938,68.139-9.711c22.118-4.765,43.011-9.266,63.975-9.266c10.85,0,20.903,1.251,30.398,3.8
	c-12.2,13.187-25.105,29.355-39.138,49.012c-2.465,3.452-2.458,8.091,0.018,11.535c12.953,18.031,24.88,36.301,36.129,55.36
	C233.241,137.793,224.145,136.941,214.547,136.941z"/>
<g>
</g>
<g>
</g>
<g>
</g>
<g>
</g>
<g>
</g>
<g>
</g>
<g>
</g>
<g>
</g>
<g>
</g>
<g>
</g>
<g>
</g>
<g>
</g>
<g>
</g>
<g>
</g>
<g>
</g>
</svg>
