<?xml version='1.0' encoding='iso-8859-1'?>
<svg version="1.1" xmlns="http://www.w3.org/2000/svg" viewBox="0 0 489.6 489.6" xmlns:xlink="http://www.w3.org/1999/xlink" enable-background="new 0 0 489.6 489.6">
  <g>
    <g>
      <path d="M489.6,0H0v341.7h180.8l-17.5,127.1h-58.1v20.8h280.2v-20.8h-59.1l-17.5-127.1h180.8V0z M184.4,468.8l16.7-125h86.5    l17.7,125H184.4z M468.8,320.8h-448v-300h448V320.8z"/>
      <path d="m78.6,274.8c22.4,13.3 50.9,6 64.2-16.4 11.9-20.1 7.3-45.2-10-59.7l24.8-38.4c12.5,4.2 26.2,2.9 37.7-3.6l50.3,49.3c-14.2,18.4-12.8,44.7 4.1,61.6 17.7,17.7 47.9,18.4 66.3,0 16.9-16.9 18.3-43.3 4-61.7l50.9-54.6c18.5,6.6 40.7,1.2 53.4-15.6 15.8-20.8 11.8-50-8.9-65.7-20.8-15.7-49.9-11.7-65.7,9-14.2,18.7-12.3,44.4 3.5,60.8l-49.2,52.8c-13.3-6.8-29-6.8-42.3,0l-50.9-49.9c13.7-19.4 10.8-46.1-7.5-62.2-19.6-17.2-49-15.3-66.2,4.3-16.7,19-15.3,47.2 2.7,64.6l-25.6,39.7c-19.7-5.2-41.1,3-52,21.5-13.3,22.4-6,50.9 16.4,64.2zm287.7-183.3c8.8-11.6 24.9-13.8 36.5-5 10.8,8.2 13.8,24.9 5,36.5s-24.9,13.8-36.5,5c-11.6-8.8-13.8-24.9-5-36.5zm-101.8,124.5c10.3-10.3 26.5-10.3 36.8,0 9.6,9.5 10.3,26.5 0,36.8-10.3,10.3-26.5,10.3-36.8,0-10.3-10.3-10.3-26.5 0-36.8zm-112.3-116.8c9.6-11 25.8-12 36.8-2.4s12,25.8 2.4,36.8-25.8,12-36.8,2.4c-11-9.6-12-25.8-2.4-36.8zm-72.1,121.9c7.4-12.5 23.1-16.6 35.7-9.1 12.6,7.4 16.6,23.1 9.1,35.7-7.4,12.5-23.1,16.6-35.7,9.1-12.6-7.5-16.6-23.1-9.1-35.7z"/>
    </g>
  </g>
</svg>
