<?xml version="1.0" encoding="iso-8859-1"?>
<!-- Generator: Adobe Illustrator 19.0.0, SVG Export Plug-In . SVG Version: 6.00 Build 0)  -->
<svg version="1.1" id="Layer_1" xmlns="http://www.w3.org/2000/svg" xmlns:xlink="http://www.w3.org/1999/xlink" x="0px" y="0px"
	 viewBox="0 0 512.011 512.011" style="enable-background:new 0 0 512.011 512.011;" xml:space="preserve">
<g>
	<g>
		<g>
			<path d="M445.589,245.136l-95.688-63.792c-20.917-13.958-49.542-13.958-70.458,0l-2.104,1.406V42.678
				c0-23.531-19.146-42.667-42.667-42.667c-23.521,0-42.667,19.135-42.667,42.667v285.479c0,5.375-3.542,8.135-5.063,9.073
				s-5.563,2.865-10.375,0.469l-68.5-34.25c-6.25-3.125-13.229-4.771-20.208-4.771c-24.917,0-45.188,20.271-45.188,45.188v8.146
				c0,2.958,1.229,5.781,3.396,7.802l123.125,114.896c25.75,24.052,59.333,37.302,94.604,37.302h98.875
				c58.813,0,106.667-47.854,106.667-106.667V289.511C469.339,271.636,460.464,255.053,445.589,245.136z M448.006,405.345
				c0,47.052-38.271,85.333-85.333,85.333h-98.875c-29.833,0-58.271-11.208-80.063-31.563L64.006,347.376v-3.51
				c0-13.156,10.708-23.854,23.854-23.854c3.688,0,7.375,0.875,10.667,2.521l68.5,34.25c10.042,5.031,21.646,4.469,31.146-1.396
				c9.5-5.875,15.167-16.052,15.167-27.229V42.678c0-11.76,9.563-21.333,21.333-21.333c11.771,0,21.333,9.573,21.333,21.333v160
				c0,3.938,2.167,7.552,5.625,9.406c3.479,1.865,7.667,1.656,10.958-0.531l18.688-12.458c13.917-9.271,32.875-9.271,46.792,0
				l95.688,63.792c8.917,5.948,14.25,15.906,14.25,26.625V405.345z"/>
			<path d="M148.61,157.188c1.125,0,2.25-0.177,3.375-0.542c5.583-1.865,8.604-7.906,6.75-13.49
				c-6.229-18.719-9.396-38-9.396-57.313s3.167-38.594,9.396-57.323c1.854-5.583-1.167-11.625-6.75-13.49
				c-5.625-1.833-11.625,1.146-13.5,6.76c-6.958,20.896-10.479,42.448-10.479,64.052c0,21.604,3.521,43.156,10.479,64.052
				C139.985,154.365,144.131,157.188,148.61,157.188z"/>
			<path d="M108.235,170.678c1.104,0,2.25-0.177,3.375-0.542c5.583-1.865,8.604-7.906,6.75-13.49
				c-7.75-23.313-11.688-47.302-11.688-71.302s3.938-47.99,11.688-71.302c1.854-5.583-1.167-11.625-6.75-13.49
				c-5.688-1.875-11.646,1.177-13.5,6.76c-8.479,25.479-12.771,51.74-12.771,78.031c0,26.292,4.292,52.552,12.771,78.031
				C99.61,167.855,103.756,170.678,108.235,170.678z"/>
			<path d="M316.631,156.647c1.125,0.365,2.25,0.542,3.375,0.542c4.479,0,8.625-2.823,10.125-7.302
				c6.958-20.896,10.479-42.448,10.479-64.042c0-21.604-3.521-43.156-10.479-64.052c-1.875-5.594-7.896-8.583-13.5-6.76
				c-5.583,1.865-8.604,7.906-6.75,13.49c6.229,18.729,9.396,38.01,9.396,57.323c0,19.302-3.167,38.583-9.396,57.313
				C308.026,148.74,311.047,154.782,316.631,156.647z"/>
			<path d="M357.006,170.126c1.125,0.375,2.25,0.552,3.375,0.552c4.458,0,8.625-2.823,10.125-7.292
				c8.479-25.427,12.771-51.677,12.771-78.042c0-26.365-4.292-52.615-12.771-78.042c-1.875-5.583-7.917-8.604-13.5-6.74
				c-5.583,1.865-8.604,7.896-6.75,13.49c7.75,23.24,11.688,47.229,11.688,71.292s-3.938,48.052-11.688,71.292
				C348.401,162.23,351.422,168.261,357.006,170.126z"/>
		</g>
	</g>
</g>
<g>
</g>
<g>
</g>
<g>
</g>
<g>
</g>
<g>
</g>
<g>
</g>
<g>
</g>
<g>
</g>
<g>
</g>
<g>
</g>
<g>
</g>
<g>
</g>
<g>
</g>
<g>
</g>
<g>
</g>
</svg>
