<?xml version="1.0" encoding="iso-8859-1"?>
<!-- Generator: Adobe Illustrator 18.0.0, SVG Export Plug-In . SVG Version: 6.00 Build 0)  -->
<!DOCTYPE svg PUBLIC "-//W3C//DTD SVG 1.1//EN" "http://www.w3.org/Graphics/SVG/1.1/DTD/svg11.dtd">
<svg version="1.1" id="Capa_1" xmlns="http://www.w3.org/2000/svg" xmlns:xlink="http://www.w3.org/1999/xlink" x="0px" y="0px"
	 viewBox="0 0 443 443" style="enable-background:new 0 0 443 443;" xml:space="preserve">
<path d="M333.5,141H310V88.5C310,39.701,270.299,0,221.5,0S133,39.701,133,88.5V141h-23.5c-4.142,0-7.5,3.358-7.5,7.5v49
	c0,63.373,49.589,115.373,112,119.258V400h-23.5c-19.575,0-35.5,15.925-35.5,35.5c0,4.142,3.358,7.5,7.5,7.5h118
	c4.142,0,7.5-3.358,7.5-7.5c0-19.575-15.925-35.5-35.5-35.5H229v-83.242c62.411-3.885,112-55.885,112-119.258v-49
	C341,144.358,337.642,141,333.5,141z M271.58,428H171.42c3-7.605,10.422-13,19.08-13h62C261.158,415,268.58,420.395,271.58,428z
	 M292.755,70.469L223.702,190h-9.107L289.43,60.462C290.767,63.69,291.885,67.03,292.755,70.469z M240.976,205l-36.91,63.893
	c-29.78-7.274-52.513-32.727-55.686-63.893H240.976z M258.299,205h36.322c-3.769,37.019-35.123,66-73.12,66h0
	c-0.439,0-0.872-0.026-1.31-0.033L258.299,205z M295,190h-53.975L295,96.569V190z M221.5,15c24.377,0,46.007,11.938,59.386,30.264
	L197.271,190H148V88.5C148,47.972,180.972,15,221.5,15z M326,197.5c0,57.622-46.878,104.5-104.5,104.5S117,255.122,117,197.5V156h16
	v41.5c0,48.799,39.701,88.5,88.5,88.5c48.799,0,88.5-39.701,88.5-88.5V156h16V197.5z"/>
<g>
</g>
<g>
</g>
<g>
</g>
<g>
</g>
<g>
</g>
<g>
</g>
<g>
</g>
<g>
</g>
<g>
</g>
<g>
</g>
<g>
</g>
<g>
</g>
<g>
</g>
<g>
</g>
<g>
</g>
</svg>
