<?xml version="1.0" encoding="iso-8859-1"?>
<!-- Generator: Adobe Illustrator 19.0.0, SVG Export Plug-In . SVG Version: 6.00 Build 0)  -->
<svg version="1.1" id="Layer_1" xmlns="http://www.w3.org/2000/svg" xmlns:xlink="http://www.w3.org/1999/xlink" x="0px" y="0px"
	 viewBox="0 0 496 496" style="enable-background:new 0 0 496 496;" xml:space="preserve">
<g>
	<g>
		<path d="M365.2,0H130.752C57.44,0,0,57.456,0,130.784v234.448C0,438.56,57.44,496,130.752,496H365.2
			c73.344,0,130.8-57.44,130.8-130.784V130.784C496,57.456,438.544,0,365.2,0z M464,365.216c0,56.304-42.464,98.768-98.8,98.768
			H130.752C74.448,463.984,32,421.536,32,365.216V130.784C32,74.464,74.448,32,130.752,32H365.2c56.336,0,98.8,42.464,98.8,98.784
			V365.216z"/>
	</g>
</g>
<g>
	<g>
		<path d="M255.072,101.472c-82.64,0-124.304,57.344-124.304,105.152c0,28.96,11.328,54.704,35.6,64.32
			c1.024,0.4,2.032,0.608,2.976,0.608c2.72,0,4.912-1.664,5.744-4.832c0.816-2.944,2.704-10.384,3.568-13.52
			c1.152-4.224,0.72-5.68-2.496-9.36c-7.008-8-11.504-18.352-11.504-32.992c0-42.56,32.928-80.624,85.664-80.624
			c46.704,0,72.368,27.616,72.368,64.496c0,48.528-22.192,89.504-55.136,89.504c-18.224,0-31.824-14.576-27.456-32.432
			c5.232-21.328,15.376-44.336,15.376-59.712c0-13.792-7.664-25.264-23.472-25.264c-18.624,0-33.568,18.608-33.568,43.568
			c0,15.872,5.552,26.64,5.552,26.64s-19.008,78.048-22.352,91.728c-6.656,27.216-1.008,60.592-0.528,63.952
			c0.16,1.2,1.184,1.856,2.24,1.856c0.704,0,1.424-0.288,1.888-0.896c1.728-2.144,23.872-28.624,31.408-55.088
			c2.16-7.488,12.24-46.256,12.24-46.256c6.048,11.152,23.712,20.96,42.512,20.96c55.904,0,93.84-49.296,93.84-115.328
			C365.216,147.984,321.52,101.472,255.072,101.472z"/>
	</g>
</g>
<g>
</g>
<g>
</g>
<g>
</g>
<g>
</g>
<g>
</g>
<g>
</g>
<g>
</g>
<g>
</g>
<g>
</g>
<g>
</g>
<g>
</g>
<g>
</g>
<g>
</g>
<g>
</g>
<g>
</g>
</svg>
