<?xml version="1.0"?>
<svg xmlns="http://www.w3.org/2000/svg" width="512" height="512" viewBox="0 0 128 128"><g><path d="M92.75,26.748H87.31V6.5a1.75,1.75,0,0,0-1.75-1.75H42.44A1.75,1.75,0,0,0,40.69,6.5V26.748H35.25A1.749,1.749,0,0,0,33.5,28.5V56.935a1.732,1.732,0,0,0,.1.57l7.091,20.562v8.287a7.759,7.759,0,0,0,7.75,7.75H53.25v7.25A1.749,1.749,0,0,0,55,103.1h4.25v18.4A1.749,1.749,0,0,0,61,123.25h6a1.749,1.749,0,0,0,1.75-1.75V103.1H73a1.749,1.749,0,0,0,1.75-1.75V94.1h4.812a7.758,7.758,0,0,0,7.75-7.75V78.067L94.4,57.505a1.732,1.732,0,0,0,.1-.57V28.5A1.749,1.749,0,0,0,92.75,26.748ZM44.19,8.25H83.81v18.5H44.19Zm21.06,111.5h-2.5V103.1h2.5Zm6-20.146h-4.2c-.017,0-.032,0-.049,0s-.032,0-.049,0h-5.9c-.017,0-.032,0-.049,0s-.032,0-.049,0h-4.2V94.1h14.5ZM91,56.642,83.908,77.2a1.758,1.758,0,0,0-.1.57v8.58a4.254,4.254,0,0,1-4.25,4.25H48.437a4.255,4.255,0,0,1-4.25-4.25v-8.58a1.757,1.757,0,0,0-.095-.57L37,56.642V30.248h5.421l.019,0,.02,0H85.54l.02,0,.019,0H91Z"/><path d="M85,34.5V46.923a1.75,1.75,0,0,0,3.5,0V34.5a1.75,1.75,0,1,0-3.5,0Z"/><path d="M56.417,12.749a1.749,1.749,0,0,0-1.75,1.75v6a1.75,1.75,0,0,0,3.5,0v-6A1.749,1.749,0,0,0,56.417,12.749Z"/><path d="M71.583,12.749a1.749,1.749,0,0,0-1.75,1.75v6a1.75,1.75,0,0,0,3.5,0v-6A1.749,1.749,0,0,0,71.583,12.749Z"/><path d="M75.5,51.06a1.749,1.749,0,0,0-1.75,1.75V58.2l-8,4.82V41.9a1.75,1.75,0,0,0-3.5,0V56.019l-8-4.826V45.805a1.75,1.75,0,0,0-3.5,0v6.377a1.75,1.75,0,0,0,.846,1.5L62.25,60.106v11.44a4.75,4.75,0,1,0,3.5,0V67.108L76.4,60.689a1.748,1.748,0,0,0,.847-1.5V52.81A1.749,1.749,0,0,0,75.5,51.06ZM64,77.2a1.25,1.25,0,1,1,1.25-1.25A1.251,1.251,0,0,1,64,77.2Z"/></g></svg>
